<svg width="1000" height="300" viewBox="0 0 1000 300" fill="none" xmlns="http://www.w3.org/2000/svg">
<g clip-path="url(#clip0)">
<rect x="-712" y="-6.22571" width="2790.67" height="370.101" transform="rotate(-5.6506 -712 -6.22571)" fill="#242424"/>
<rect x="1155" y="12" width="1246" height="257" transform="rotate(-180 1155 12)" fill="#242424"/>
<circle cx="35.529" cy="15.5291" r="3.5" transform="rotate(0.475864 35.529 15.5291)" fill="#FFFCFC" fill-opacity="0.15"/>
<circle cx="127.529" cy="15.5289" r="3.5" transform="rotate(0.475864 127.529 15.5289)" fill="#FFFCFC" fill-opacity="0.15"/>
<circle cx="219.529" cy="15.5291" r="3.5" transform="rotate(0.475864 219.529 15.5291)" fill="#FFFCFC" fill-opacity="0.15"/>
<circle cx="311.529" cy="15.5291" r="3.5" transform="rotate(0.475864 311.529 15.5291)" fill="#FFFCFC" fill-opacity="0.15"/>
<circle cx="403.529" cy="15.5289" r="3.5" transform="rotate(0.475864 403.529 15.5289)" fill="#FFFCFC" fill-opacity="0.15"/>
<circle cx="495.529" cy="15.5291" r="3.5" transform="rotate(0.475864 495.529 15.5291)" fill="#FFFCFC" fill-opacity="0.15"/>
<circle cx="587.529" cy="15.5289" r="3.5" transform="rotate(0.475864 587.529 15.5289)" fill="#FFFCFC" fill-opacity="0.15"/>
<circle cx="679.529" cy="15.5291" r="3.5" transform="rotate(0.475864 679.529 15.5291)" fill="#FFFCFC" fill-opacity="0.15"/>
<circle cx="771.529" cy="15.5291" r="3.5" transform="rotate(0.475864 771.529 15.5291)" fill="#FFFCFC" fill-opacity="0.15"/>
<circle cx="863.529" cy="15.5289" r="3.5" transform="rotate(0.475864 863.529 15.5289)" fill="#FFFCFC" fill-opacity="0.15"/>
<circle cx="955.529" cy="15.5291" r="3.5" transform="rotate(0.475864 955.529 15.5291)" fill="#FFFCFC" fill-opacity="0.15"/>
<circle cx="35.529" cy="81.5289" r="3.5" transform="rotate(0.475864 35.529 81.5289)" fill="#FFFCFC" fill-opacity="0.15"/>
<circle cx="127.529" cy="81.5291" r="3.5" transform="rotate(0.475864 127.529 81.5291)" fill="#FFFCFC" fill-opacity="0.15"/>
<circle cx="219.529" cy="81.5289" r="3.5" transform="rotate(0.475864 219.529 81.5289)" fill="#FFFCFC" fill-opacity="0.15"/>
<circle cx="311.529" cy="81.5291" r="3.5" transform="rotate(0.475864 311.529 81.5291)" fill="#FFFCFC" fill-opacity="0.15"/>
<circle cx="403.529" cy="81.5291" r="3.5" transform="rotate(0.475864 403.529 81.5291)" fill="#FFFCFC" fill-opacity="0.15"/>
<circle cx="495.529" cy="81.5289" r="3.5" transform="rotate(0.475864 495.529 81.5289)" fill="#FFFCFC" fill-opacity="0.15"/>
<circle cx="587.529" cy="81.5291" r="3.5" transform="rotate(0.475864 587.529 81.5291)" fill="#FFFCFC" fill-opacity="0.15"/>
<circle cx="679.529" cy="81.5289" r="3.5" transform="rotate(0.475864 679.529 81.5289)" fill="#FFFCFC" fill-opacity="0.15"/>
<circle cx="771.529" cy="81.5291" r="3.5" transform="rotate(0.475864 771.529 81.5291)" fill="#FFFCFC" fill-opacity="0.15"/>
<circle cx="863.529" cy="81.5291" r="3.5" transform="rotate(0.475864 863.529 81.5291)" fill="#FFFCFC" fill-opacity="0.15"/>
<circle cx="955.529" cy="81.5289" r="3.5" transform="rotate(0.475864 955.529 81.5289)" fill="#FFFCFC" fill-opacity="0.15"/>
<circle cx="35.529" cy="147.529" r="3.5" transform="rotate(0.475864 35.529 147.529)" fill="#FFFCFC" fill-opacity="0.15"/>
<circle cx="127.529" cy="147.529" r="3.5" transform="rotate(0.475864 127.529 147.529)" fill="#FFFCFC" fill-opacity="0.15"/>
<circle cx="219.529" cy="147.529" r="3.5" transform="rotate(0.475864 219.529 147.529)" fill="#FFFCFC" fill-opacity="0.15"/>
<circle cx="311.529" cy="147.529" r="3.5" transform="rotate(0.475864 311.529 147.529)" fill="#FFFCFC" fill-opacity="0.15"/>
<circle cx="403.529" cy="147.529" r="3.5" transform="rotate(0.475864 403.529 147.529)" fill="#FFFCFC" fill-opacity="0.15"/>
<circle cx="495.529" cy="147.529" r="3.5" transform="rotate(0.475864 495.529 147.529)" fill="#FFFCFC" fill-opacity="0.15"/>
<circle cx="587.529" cy="147.529" r="3.5" transform="rotate(0.475864 587.529 147.529)" fill="#FFFCFC" fill-opacity="0.15"/>
<circle cx="679.529" cy="147.529" r="3.5" transform="rotate(0.475864 679.529 147.529)" fill="#FFFCFC" fill-opacity="0.15"/>
<circle cx="771.529" cy="147.529" r="3.5" transform="rotate(0.475864 771.529 147.529)" fill="#FFFCFC" fill-opacity="0.15"/>
<circle cx="863.529" cy="147.529" r="3.5" transform="rotate(0.475864 863.529 147.529)" fill="#FFFCFC" fill-opacity="0.15"/>
<circle cx="955.529" cy="147.529" r="3.5" transform="rotate(0.475864 955.529 147.529)" fill="#FFFCFC" fill-opacity="0.15"/>
<circle cx="35.529" cy="213.529" r="3.5" transform="rotate(0.475864 35.529 213.529)" fill="#FFFCFC" fill-opacity="0.15"/>
<circle cx="127.529" cy="213.529" r="3.5" transform="rotate(0.475864 127.529 213.529)" fill="#FFFCFC" fill-opacity="0.15"/>
<circle cx="219.529" cy="213.529" r="3.5" transform="rotate(0.475864 219.529 213.529)" fill="#FFFCFC" fill-opacity="0.15"/>
<circle cx="311.529" cy="213.529" r="3.5" transform="rotate(0.475864 311.529 213.529)" fill="#FFFCFC" fill-opacity="0.15"/>
<circle cx="403.529" cy="213.529" r="3.5" transform="rotate(0.475864 403.529 213.529)" fill="#FFFCFC" fill-opacity="0.15"/>
<circle cx="495.529" cy="213.529" r="3.5" transform="rotate(0.475864 495.529 213.529)" fill="#FFFCFC" fill-opacity="0.15"/>
<circle cx="587.529" cy="213.529" r="3.5" transform="rotate(0.475864 587.529 213.529)" fill="#FFFCFC" fill-opacity="0.15"/>
<circle cx="679.529" cy="213.529" r="3.5" transform="rotate(0.475864 679.529 213.529)" fill="#FFFCFC" fill-opacity="0.15"/>
<circle cx="771.529" cy="213.529" r="3.5" transform="rotate(0.475864 771.529 213.529)" fill="#FFFCFC" fill-opacity="0.15"/>
<circle cx="863.529" cy="213.529" r="3.5" transform="rotate(0.475864 863.529 213.529)" fill="#FFFCFC" fill-opacity="0.15"/>
<circle cx="955.529" cy="213.529" r="3.5" transform="rotate(0.475864 955.529 213.529)" fill="#FFFCFC" fill-opacity="0.15"/>
<circle cx="35.5289" cy="279.529" r="3.5" transform="rotate(0.475864 35.5289 279.529)" fill="#FFFCFC" fill-opacity="0.15"/>
<circle cx="127.529" cy="279.529" r="3.5" transform="rotate(0.475864 127.529 279.529)" fill="#FFFCFC" fill-opacity="0.15"/>
<circle cx="219.529" cy="279.529" r="3.5" transform="rotate(0.475864 219.529 279.529)" fill="#FFFCFC" fill-opacity="0.15"/>
<circle cx="311.529" cy="279.529" r="3.5" transform="rotate(0.475864 311.529 279.529)" fill="#FFFCFC" fill-opacity="0.15"/>
<circle cx="403.529" cy="279.529" r="3.5" transform="rotate(0.475864 403.529 279.529)" fill="#FFFCFC" fill-opacity="0.15"/>
<circle cx="495.529" cy="279.529" r="3.5" transform="rotate(0.475864 495.529 279.529)" fill="#FFFCFC" fill-opacity="0.15"/>
<circle cx="587.529" cy="279.529" r="3.5" transform="rotate(0.475864 587.529 279.529)" fill="#FFFCFC" fill-opacity="0.15"/>
<circle cx="679.529" cy="279.529" r="3.5" transform="rotate(0.475864 679.529 279.529)" fill="#FFFCFC" fill-opacity="0.15"/>
<circle cx="771.529" cy="279.529" r="3.5" transform="rotate(0.475864 771.529 279.529)" fill="#FFFCFC" fill-opacity="0.15"/>
<circle cx="863.529" cy="279.529" r="3.5" transform="rotate(0.475864 863.529 279.529)" fill="#FFFCFC" fill-opacity="0.15"/>
<circle cx="955.529" cy="279.529" r="3.5" transform="rotate(0.475864 955.529 279.529)" fill="#FFFCFC" fill-opacity="0.15"/>
</g>
<defs>
<clipPath id="clip0">
<rect width="1000" height="300" fill="white"/>
</clipPath>
</defs>
</svg>
